{"title":"Sicario.2015.HD-TS.XVID.AC3.HQ.Hive-CM8","uid":12523796,"size":1839374957,"categoryP":"video","categoryS":"movies","magnet":"?xt=urn:btih:ec8ed347b3b1589c4f715eac5c65420aedd43979&amp;dn=Sicario.2015.HD-TS.XVID.AC3.HQ.Hive-CM8&amp;tr=udp%3A%2F%2Ftracker.leechers-paradise.org%3A6969&amp;tr=udp%3A%2F%2Fzer0day.ch%3A1337&amp;tr=udp%3A%2F%2Fopen.demonii.com%3A1337&amp;tr=udp%3A%2F%2Ftracker.coppersurfer.tk%3A6969&amp;tr=udp%3A%2F%2Fexodus.desync.com%3A6969","seeders":1,"leechers":0,"uploader":"makintos13","files":3,"time":1443975306,"description":"Screens:\r\n \nhttp://imgmak.com/c3\r\n \nhttp://imgmak.com/cG\r\n \nhttp://imgmak.com/cH\r\n \nhttp://imgmak.com/cv\r\n \nhttp://imgmak.com/cy\r\n \nhttp://imgmak.com/c6\r\n\r\n\r\n::::::;\r\n\r\n\r\nSicario.2015.HD-TS.XVID.AC3.HQ.Hive-CM8\r\n\r\nThx Hive\r\n\r\nCM8 Doing It Right The First Time\r\n\r\nSources:\r\n\r\nVideo: 1080p HDCAM Incoming big thx\r\nAudio: Sweet Line Big Thx to S4NDM4N\r\n\r\nNotes:\r\n\r\nsuperior cam for a great top notch movie, as good as it can be done\r\n\r\n\r\nEncode:\r\n\r\nthere wasnt much to do, slightly brighter,removed some flicker and noise\r\ncropped some lines from bottom due to seats and moving heads no biggie at all, full movie enjoyment\r\nvideo is complete\r\n\r\naudio was nice too, lipsynced to my video\r\n\r\ngot very nice\r\nwill def. do me till retail\r\nenjoy\r\n\r\nVideo: 720x320 @bitrate 1800 2pass\r\nAudio: English AC3 2.0 Line Stereo\r\nSample: yes included\r\n\r\nPS:\r\nDVDScr time is coming fast, if you got a disc or a rip, you know someone who has it\r\ndont hesitate to contact me, we can get it out safely together as every year\r\n&quot;grandma&quot; has already been sent, am looking for it - anyone?\r\n\r\n \nhttp://www.imdb.com/title/tt3397884/\r\n\r\n\r\n\r\nGeneral\r\nComplete name : Sicario.2015.HD-TS.XVID.AC3.HQ.Hive-CM8.avi\r\nFormat : AVI\r\nFormat/Info : Audio Video Interleave\r\nFile size : 1.69 GiB\r\nDuration : 1h 55mn\r\nOverall bit rate : 2 096 Kbps\r\nWriting application : Nandub v1.0rc2\r\nWriting library : Nandub build 1853/release\r\n\r\nVideo\r\nID : 0\r\nFormat : MPEG-4 Visual\r\nFormat profile : Advanced   \r\nFormat settings, BVOP : 2\r\nFormat settings, QPel : Yes\r\nFormat settings, GMC : No warppoints\r\nFormat settings, Matrix : Default (H.263)\r\nMuxing mode : Packed bitstream\r\nCodec ID : XVID\r\nCodec ID/Hint : XviD\r\nDuration : 1h 55mn\r\nBit rate : 1 827 Kbps\r\nWidth : 720 pixels\r\nHeight : 320 pixels\r\nDisplay aspect ratio : 2.25:1\r\nFrame rate : 29.970 fps\r\nColor space : YUV\r\nChroma subsampling : 4:2:0\r\nBit depth : 8 bits\r\nScan type : Progressive\r\nCompression mode : Lossy\r\nBits/(Pixel*Frame) : 0.265\r\nStream size : 1.47 GiB (87%)\r\nWriting library : XviD 1.2.1 (UTC 2008-12-04)\r\n\r\nAudio\r\nID : 1\r\nFormat : AC-3\r\nFormat/Info : Audio Coding 3\r\nMode extension : CM (complete main)\r\nFormat settings, Endianness : Big\r\nCodec ID : 2000\r\nDuration : 1h 55mn\r\nBit rate mode :Constant\r\nBit rate : 256 Kbps\r\nChannel(s) : 2 channels\r\nChannel positions : Front: L R\r\nSampling rate : 48.0 KHz\r\nBit depth : 16 bits\r\nCompression mode : Lossy\r\nStream size : 212 MiB (12%)\r\nAlignment : Split accross interleaves\r\nInterleave, duration : 33 ms (1.00 video frame)\r\nInterleave, preload duration : 500 ms","torrent":{"xt":"urn:btih:ec8ed347b3b1589c4f715eac5c65420aedd43979","amp;dn":"Sicario.2015.HD-TS.XVID.AC3.HQ.Hive-CM8","amp;tr":["udp%3A%2F%2Ftracker.leechers-paradise.org%3A6969","udp%3A%2F%2Fzer0day.ch%3A1337","udp%3A%2F%2Fopen.demonii.com%3A1337","udp%3A%2F%2Ftracker.coppersurfer.tk%3A6969","udp%3A%2F%2Fexodus.desync.com%3A6969"],"infoHash":"ec8ed347b3b1589c4f715eac5c65420aedd43979","infoHashBuffer":{"type":"Buffer","data":[236,142,211,71,179,177,88,156,79,113,94,172,92,101,66,10,237,212,57,121]},"announce":[],"urlList":[]}}